Coordinates
version=1
nRows=24
nColumns=24
inDegrees=yes

Units are S.I. units (second, meters, Newtons, ...)
Angles are in degrees.

endheader
time	pelvis_tilt	pelvis_list	pelvis_rotation	pelvis_tx	pelvis_ty	pelvis_tz	hip_flexion_r	hip_adduction_r	hip_rotation_r	knee_angle_r	ankle_angle_r	subtalar_angle_r	mtp_angle_r	hip_flexion_l	hip_adduction_l	hip_rotation_l	knee_angle_l	ankle_angle_l	subtalar_angle_l	mtp_angle_l	lumbar_extension	lumbar_bending	lumbar_rotation
      6.17000000	      2.38824738	      4.20384259	      6.82553016	      1.93883233	      0.90792546	     -0.26743407	     23.07520751	     -4.83522182	    -16.57989311	     -5.87329264	     10.58923732	     10.52259706	      0.00000000	    -20.56318977	      4.61560699	     10.82345638	     -9.05362942	     17.24387698	      2.29067257	      0.00000000	    -23.33294626	     -3.81494096	    -15.39986313
      6.18000000	      2.38694418	      3.87501275	      6.56367344	      1.95525203	      0.90679743	     -0.26612286	     22.97880708	     -4.08337182	    -14.93929577	     -6.87458259	      9.48841164	      7.66230319	      0.00000000	    -20.48633213	      4.23758001	      9.93143291	    -11.01974107	     16.73336296	      3.21259821	      0.00000000	    -23.12837217	     -3.55161740	    -14.85944382
      6.19000000	      2.32680707	      3.45236897	      6.18111005	      1.97193768	      0.90588221	     -0.26460501	     22.92426434	     -3.17942866	    -12.87398037	     -7.98894351	      7.87818776	      4.21523255	      0.00000000	    -20.19768126	      3.80116090	      8.86402465	    -13.21907788	     15.80419235	      4.10461485	      0.00000000	    -22.77318185	     -3.22967612	    -14.19286166
      6.20000000	      2.21015837	      2.91097153	      5.70135539	      1.98869323	      0.90523133	     -0.26294503	     22.93908188	     -2.12406216	    -10.56701325	     -9.20043101	      5.86368116	      0.51438260	      0.00000000	    -19.65354916	      3.27378291	      7.72358751	    -15.71188324	     14.48237925	      4.98383326	      0.00000000	    -22.31800331	     -2.79956367	    -13.40153527
      6.21000000	      2.08073759	      2.26653069	      5.11002173	      2.00544949	      0.90490350	     -0.26113859	     22.99850582	     -0.93368400	     -8.17290658	    -10.52475478	      3.75825612	     -3.10452692	      0.00000000	    -18.87122382	      2.66149151	      6.45334697	    -18.53354173	     12.71254516	      5.87127298	      0.00000000	    -21.83241691	     -2.27084840	    -12.49576901
      6.22000000	      1.97867397	      1.54580145	      4.44302973	      2.02209837	      0.90495610	     -0.25925132	     23.04578102	      0.35016930	     -5.82953698	    -11.94575519	      1.87826301	     -6.33983288	      0.00000000	    -17.87358786	      1.96690664	      5.12994363	    -21.69143697	     10.46654897	      6.76692630	      0.00000000	    -21.39469719	     -1.64913418	    -11.52318768
      6.23000000	      1.91632289	      0.72545754	      3.74947810	      2.03866350	      0.90536468	     -0.25738856	     23.03931483	      1.72910750	     -3.71038434	    -13.43815207	      0.52050943	     -8.95456331	      0.00000000	    -16.67106749	      1.14636311	      3.82683551	    -25.16972251	      7.77812771	      7.63090934	      0.00000000	    -21.01424926	     -0.89074371	    -10.52935914
      6.24000000	      1.94027916	     -0.06388849	      3.09181943	      2.05475435	      0.90610444	     -0.25557790	     22.90996133	      3.06407427	     -1.79947343	    -14.94279621	     -0.24060432	    -11.06143839	      0.00000000	    -15.27961592	      0.31968022	      2.71961762	    -28.97355154	      4.75831473	      8.44404743	      0.00000000	    -20.85022412	     -0.13537838	     -9.63320245
      6.25000000	      1.97356470	     -0.97053336	      2.53433712	      2.07065346	      0.90701041	     -0.25400594	     22.67745992	      4.44860256	     -0.39709309	    -16.35035769	     -0.27979821	    -12.42777654	      0.00000000	    -13.65831364	     -0.66584132	      1.80815104	    -33.01234377	      1.57318011	      9.08954655	      0.00000000	    -20.71973902	      0.80638320	     -8.80892145
      6.26000000	      1.98573696	     -1.94904793	      2.11178387	      2.08621773	      0.90799413	     -0.25274139	     22.33165671	      5.81598307	      0.51490622	    -17.53246924	      0.23450906	    -13.26231965	      0.00000000	    -11.78891779	     -1.74302277	      1.18246178	    -37.21079839	     -1.60651492	      9.43186012	      0.00000000	    -20.61380082	      1.88953432	     -8.10675914
      6.27000000	      1.92171952	     -2.99924258	      1.84887650	      2.10139023	      0.90894028	     -0.25177409	     21.91017767	      7.14714010	      0.94738638	    -18.40740558	      1.14576108	    -13.63826819	      0.00000000	     -9.63371255	     -2.89901688	      0.86572460	    -41.48924718	     -4.51977229	      9.41761981	      0.00000000	    -20.46196705	      3.10293776	     -7.53114140
      6.28000000	      1.76096381	     -4.11953700	      1.74112581	      2.11620908	      0.90981956	     -0.25112547	     21.42225587	      8.43010984	      0.90333483	    -18.91828493	      2.31117349	    -13.60079955	      0.00000000	     -7.21363847	     -4.10542306	      0.85485123	    -45.73603871	     -6.93129465	      8.99728004	      0.00000000	    -20.21814354	      4.44043437	     -7.06590599
      6.29000000	      1.51055524	     -5.25905373	      1.76624724	      2.13075769	      0.91069080	     -0.25076100	     20.84767519	      9.62767042	      0.51452869	    -19.04066562	      3.61797115	    -13.20013946	      0.00000000	     -4.59577193	     -5.27513932	      1.15493562	    -49.80991506	     -8.65223891	      8.17918183	      0.00000000	    -19.85892199	      5.83366975	     -6.68169957
      6.30000000	      1.23011935	     -6.34332145	      1.83368838	      2.14505868	      0.91168068	     -0.25048211	     20.15236336	     10.71345793	     -0.10693763	    -18.83806598	      4.94312104	    -12.50734047	      0.00000000	     -1.90592304	     -6.32831250	      1.62100981	    -53.58274728	     -9.56471812	      7.06607529	      0.00000000	    -19.45888076	      7.14806555	     -6.32022852
      6.31000000	      0.99631590	     -7.30918878	      1.92749044	      2.15924297	      0.91296634	     -0.25024168	     19.25416378	     11.65551726	     -0.81943784	    -18.34287349	      6.20380686	    -11.63781588	      0.00000000	      0.70135171	     -7.19022535	      2.23076362	    -56.92119925	     -9.60030833	      5.79382393	      0.00000000	    -19.08531714	      8.29868187	     -5.89346503
      6.32000000	      0.76230991	     -8.04357745	      1.97907137	      2.17323815	      0.91453809	     -0.24988729	     18.25968353	     12.37272184	     -1.45216195	    -17.70234763	      7.39778180	    -10.55020476	      0.00000000	      3.24645203	     -7.76519155	      2.85118475	    -59.76460176	     -8.87812395	      4.50312344	      0.00000000	    -18.71468323	      9.13359317	     -5.56844815
      6.33000000	      0.60028207	     -8.49830883	      1.97150291	      2.18715471	      0.91653467	     -0.24938864	     17.10326506	     12.84043983	     -1.91886861	    -16.96402116	      8.45964808	     -9.45202801	      0.00000000	      5.58705298	     -8.01749472	      3.41371950	    -62.01698799	     -7.58284853	      3.22834514	      0.00000000	    -18.41918891	      9.58517412	     -5.17081303
      6.34000000	      0.48397836	     -8.64461398	      1.88011299	      2.20094565	      0.91890526	     -0.24868981	     15.85287002	     13.03834153	     -2.12526137	    -16.21043516	      9.37869883	     -8.41970872	      0.00000000	      7.73703398	     -7.94923045	      3.83552143	    -63.66661494	     -5.97176015	      2.01298794	      0.00000000	    -18.19137014	      9.61730125	     -4.75280829
      6.35000000	      0.40953345	     -8.50426272	      1.68621465	      2.21462060	      0.92159471	     -0.24776435	     14.53023186	     12.99128981	     -2.01263029	    -15.46689085	     10.11561306	     -7.56977606	      0.00000000	      9.68390332	     -7.61380341	      4.05721957	    -64.71499475	     -4.27030940	      0.85464002	      0.00000000	    -18.03349894	      9.25579958	     -4.29800681
      6.36000000	      0.35455151	     -8.11521503	      1.43675368	      2.22814381	      0.92444934	     -0.24665979	     13.18774682	     12.71718189	     -1.63818279	    -14.74970321	     10.71299165	     -6.95588104	      0.00000000	     11.47707183	     -7.06621817	      4.11001843	    -65.21955926	     -2.63385064	     -0.20760947	      0.00000000	    -17.91977594	      8.56227539	     -3.90431169
      6.37000000	      0.25892787	     -7.55308645	      1.10061451	      2.24153179	      0.92730054	     -0.24542039	     11.90675217	     12.27275739	     -1.12291845	    -14.06771618	     11.22824649	     -6.42620247	      0.00000000	     13.17759562	     -6.38922799	      3.98317150	    -65.22331765	     -1.18654563	     -1.23215848	      0.00000000	    -17.78544487	      7.63917513	     -3.46881171
      6.38000000	      0.14042225	     -6.86656417	      0.69100619	      2.25478353	      0.93005473	     -0.24405390	     10.66790560	     11.70163601	     -0.49434909	    -13.39948358	     11.68982370	     -5.99679542	      0.00000000	     14.77520416	     -5.64917960	      3.68547543	    -64.77356274	      0.06083352	     -2.19566709	      0.00000000	    -17.64495266	      6.54832777	     -3.03243483
      6.39000000	      0.00295658	     -6.11487861	      0.21746186	      2.26789167	      0.93261562	     -0.24260809	      9.46267270	     11.05221293	      0.18207215	    -12.71450760	     12.12944910	     -5.59697160	      0.00000000	     16.27610448	     -4.90539010	      3.25066175	    -63.91984466	      1.12153524	     -3.10331121	      0.00000000	    -17.50865253	      5.37181968	     -2.57932432
      6.40000000	     -0.14407062	     -5.34106488	     -0.28898448	      2.28086789	      0.93492408	     -0.24113981	      8.28559106	     10.35845243	      0.83031812	    -12.00805350	     12.57196010	     -5.18698058	      0.00000000	     17.67719673	     -4.19289344	      2.73572942	    -62.69414737	      2.02311107	     -3.92679550	      0.00000000	    -17.38325235	      4.17478381	     -2.12847350
